<svg width="678" height="276" viewBox="0 0 678 276" fill="none" xmlns="http://www.w3.org/2000/svg">
<path d="M338.771 275.506C525.818 275.506 677.45 265.471 677.45 253.092C677.45 240.712 525.818 230.677 338.771 230.677C151.724 230.677 0.0921631 240.712 0.0921631 253.092C0.0921631 265.471 151.724 275.506 338.771 275.506Z" fill="#F2F2F2"/>
<path d="M325.79 7.7085C270.61 7.7085 230.992 43.1003 230.992 125.681C230.992 219.273 270.61 244.047 325.79 244.047C380.97 244.047 422.949 216.913 422.949 125.681C422.949 28.1571 380.97 7.7085 325.79 7.7085ZM326.153 212.981C287.934 212.981 267.967 190.565 267.967 125.742C267.967 68.5442 288.752 38.3814 326.971 38.3814C365.189 38.3814 385.974 58.1942 385.974 125.742C385.974 188.931 364.372 212.981 326.153 212.981Z" fill="#2F2E41"/>
<path d="M197.95 178.769H175.135V111.605C175.135 108.038 173.718 104.616 171.195 102.094C168.671 99.5714 165.249 98.1543 161.681 98.1543H156.335C154.568 98.1543 152.818 98.5022 151.186 99.1781C149.554 99.8541 148.07 100.845 146.821 102.094C145.572 103.343 144.58 104.826 143.904 106.458C143.228 108.09 142.88 109.839 142.88 111.605V178.769H78.5279C77.204 178.769 75.9026 178.427 74.75 177.776C73.5973 177.125 72.6325 176.187 71.9492 175.054C71.2659 173.92 70.8872 172.629 70.85 171.306C70.8127 169.983 71.1181 168.673 71.7366 167.503L139.846 38.63C140.695 37.0232 141.21 35.2612 141.359 33.4501C141.508 31.639 141.289 29.8165 140.714 28.0926C140.139 26.3687 139.221 24.7791 138.015 23.4198C136.808 22.0604 135.339 20.9596 133.695 20.1836L129.675 18.2855C126.553 16.8116 122.983 16.594 119.705 17.6776C116.427 18.7613 113.691 21.0632 112.064 24.1072L28.9949 179.458C27.5804 182.104 26.8403 185.057 26.8403 188.057C26.8403 190.452 27.3122 192.824 28.2291 195.037C29.146 197.249 30.4898 199.26 32.184 200.954C33.8781 202.647 35.8893 203.991 38.1028 204.907C40.3163 205.824 42.6887 206.296 45.0846 206.296H142.88V248.766C142.88 250.883 143.297 252.98 144.108 254.936C144.918 256.892 146.106 258.669 147.604 260.167C149.101 261.664 150.879 262.851 152.836 263.662C154.793 264.472 156.89 264.889 159.008 264.889H159.008C161.126 264.889 163.223 264.472 165.179 263.662C167.136 262.851 168.914 261.664 170.412 260.167C171.909 258.669 173.097 256.892 173.908 254.936C174.718 252.98 175.135 250.883 175.135 248.766V206.296H197.95C201.601 206.296 205.103 204.846 207.685 202.265C210.267 199.683 211.717 196.183 211.717 192.532C211.717 188.882 210.267 185.381 207.685 182.8C205.103 180.219 201.601 178.769 197.95 178.769Z" fill="#226CE0"/>
<path d="M620.413 178.769H597.599V111.605C597.599 108.038 596.181 104.616 593.658 102.094C591.135 99.5714 587.713 98.1543 584.144 98.1543H578.798C577.031 98.1543 575.282 98.5022 573.65 99.1781C572.017 99.8541 570.534 100.845 569.285 102.094C568.035 103.343 567.044 104.826 566.368 106.458C565.692 108.09 565.344 109.839 565.344 111.605V178.769H500.992C499.668 178.769 498.366 178.427 497.214 177.776C496.061 177.125 495.096 176.187 494.413 175.054C493.729 173.92 493.351 172.629 493.314 171.306C493.276 169.983 493.582 168.673 494.2 167.503L562.31 38.63C563.159 37.0233 563.674 35.2612 563.823 33.4501C563.972 31.6391 563.753 29.8165 563.178 28.0926C562.603 26.3687 561.685 24.7791 560.478 23.4198C559.272 22.0604 557.803 20.9596 556.159 20.1836L552.138 18.2855C549.016 16.8116 545.447 16.594 542.169 17.6776C538.891 18.7613 536.155 21.0632 534.527 24.1072L451.459 179.458C450.044 182.104 449.304 185.057 449.304 188.057C449.304 192.894 451.226 197.533 454.648 200.954C458.069 204.374 462.71 206.296 467.548 206.296H565.344V248.766C565.344 253.042 567.043 257.143 570.067 260.167C573.092 263.19 577.194 264.889 581.471 264.889C585.749 264.889 589.851 263.19 592.875 260.167C595.9 257.143 597.599 253.042 597.599 248.766V206.296H620.413C624.065 206.296 627.567 204.846 630.148 202.265C632.73 199.683 634.181 196.183 634.181 192.532C634.181 188.882 632.73 185.381 630.148 182.8C627.567 180.219 624.065 178.769 620.413 178.769Z" fill="#226CE0"/>
<path d="M204.244 170.904H181.429V103.74C181.429 101.974 181.081 100.225 180.405 98.5928C179.729 96.9609 178.737 95.4781 177.488 94.2291C176.239 92.9801 174.756 91.9893 173.123 91.3134C171.491 90.6374 169.741 90.2895 167.974 90.2895H162.628C159.06 90.2895 155.638 91.7066 153.115 94.2291C150.591 96.7516 149.174 100.173 149.174 103.74V170.904H84.8215C83.4976 170.904 82.1962 170.562 81.0436 169.911C79.8909 169.26 78.9261 168.322 78.2428 167.189C77.5595 166.055 77.1808 164.764 77.1435 163.441C77.1063 162.118 77.4117 160.808 78.0302 159.638L146.14 30.7652C146.989 29.1585 147.504 27.3964 147.653 25.5854C147.802 23.7743 147.583 21.9518 147.008 20.2279C146.433 18.5039 145.515 16.9143 144.308 15.555C143.102 14.1957 141.633 13.0948 139.989 12.3189L135.968 10.4208C132.846 8.9469 129.277 8.72927 125.999 9.8129C122.721 10.8965 119.985 13.1984 118.357 16.2424L35.2885 171.594C33.874 174.239 33.1339 177.192 33.1339 180.192V180.192C33.1339 185.029 35.0561 189.668 38.4775 193.089C41.899 196.509 46.5395 198.431 51.3782 198.431H149.174V240.901C149.174 243.018 149.591 245.115 150.401 247.071C151.212 249.027 152.4 250.805 153.897 252.302C155.395 253.799 157.173 254.987 159.13 255.797C161.086 256.607 163.183 257.024 165.301 257.024H165.301C169.579 257.024 173.681 255.325 176.705 252.302C179.73 249.278 181.429 245.177 181.429 240.901V198.431H204.243C206.051 198.431 207.842 198.075 209.512 197.383C211.182 196.692 212.7 195.678 213.979 194.4C215.257 193.122 216.271 191.604 216.963 189.935C217.655 188.265 218.011 186.475 218.011 184.668V184.668C218.011 182.86 217.655 181.07 216.963 179.401C216.271 177.731 215.257 176.213 213.979 174.935C212.7 173.657 211.182 172.643 209.512 171.952C207.842 171.26 206.051 170.904 204.244 170.904V170.904Z" stroke="#3F3D56" stroke-miterlimit="10"/>
<path d="M632.214 170.904H609.4V103.74C609.4 100.173 607.982 96.7516 605.459 94.2291C602.936 91.7066 599.513 90.2895 595.945 90.2895H590.599C588.832 90.2895 587.083 90.6374 585.45 91.3134C583.818 91.9893 582.335 92.9801 581.085 94.2291C579.836 95.4781 578.845 96.9609 578.169 98.5928C577.492 100.225 577.144 101.974 577.144 103.74V170.904H512.792C511.468 170.904 510.167 170.562 509.014 169.911C507.862 169.26 506.897 168.322 506.213 167.189C505.53 166.055 505.152 164.764 505.114 163.441C505.077 162.118 505.382 160.808 506.001 159.638L574.111 30.7652C574.96 29.1585 575.474 27.3964 575.624 25.5854C575.773 23.7743 575.553 21.9518 574.978 20.2279C574.404 18.5039 573.485 16.9143 572.279 15.555C571.073 14.1957 569.603 13.0948 567.96 12.3189L563.939 10.4208C560.817 8.9469 557.248 8.72927 553.97 9.8129C550.692 10.8965 547.956 13.1984 546.328 16.2424L463.259 171.594C461.845 174.239 461.105 177.192 461.105 180.192C461.105 185.029 463.027 189.668 466.448 193.089C469.87 196.509 474.51 198.431 479.349 198.431H577.144V240.901C577.144 245.177 578.844 249.278 581.868 252.302C584.893 255.325 588.995 257.024 593.272 257.024V257.024C597.549 257.024 601.651 255.325 604.676 252.302C607.7 249.278 609.4 245.177 609.4 240.901V198.431H632.214C634.022 198.431 635.812 198.075 637.483 197.383C639.153 196.692 640.671 195.678 641.949 194.4C643.228 193.122 644.242 191.604 644.934 189.935C645.625 188.265 645.982 186.475 645.982 184.668V184.668C645.982 181.017 644.531 177.516 641.949 174.935C639.367 172.354 635.866 170.904 632.214 170.904V170.904Z" stroke="#3F3D56" stroke-miterlimit="10"/>
<path d="M338.378 0.630127C283.198 0.630127 243.579 36.0219 243.579 118.603C243.579 212.194 283.198 236.969 338.378 236.969C393.558 236.969 435.537 209.835 435.537 118.603C435.537 21.0787 393.558 0.630127 338.378 0.630127ZM338.74 205.902C300.521 205.902 280.554 183.487 280.554 118.663C280.554 61.4658 301.339 31.303 339.558 31.303C377.777 31.303 398.561 51.1158 398.561 118.663C398.561 181.853 376.959 205.902 338.74 205.902V205.902Z" stroke="#3F3D56" stroke-miterlimit="10"/>
<path d="M300.443 119.46C306.471 119.46 311.357 113.138 311.357 105.339C311.357 97.5404 306.471 91.2183 300.443 91.2183C294.415 91.2183 289.528 97.5404 289.528 105.339C289.528 113.138 294.415 119.46 300.443 119.46Z" fill="#2F2E41"/>
<path d="M359.832 119.781C365.86 119.781 370.747 113.459 370.747 105.66C370.747 97.8615 365.86 91.5393 359.832 91.5393C353.804 91.5393 348.917 97.8615 348.917 105.66C348.917 113.459 353.804 119.781 359.832 119.781Z" fill="#2F2E41"/>
<path d="M351.485 147.381C351.485 153.761 342.574 158.935 331.582 158.935C320.59 158.935 311.678 153.761 311.678 147.381C311.678 141.855 318.362 137.233 327.293 136.104C328.715 135.916 330.148 135.824 331.582 135.828C333.985 135.82 336.382 136.078 338.728 136.598C346.188 138.26 351.485 142.464 351.485 147.381Z" fill="#2F2E41"/>
<path d="M303.011 116.251C309.039 116.251 313.926 109.929 313.926 102.13C313.926 94.3312 309.039 88.009 303.011 88.009C296.983 88.009 292.096 94.3312 292.096 102.13C292.096 109.929 296.983 116.251 303.011 116.251Z" stroke="#3F3D56" stroke-miterlimit="10"/>
<path d="M362.4 116.572C368.428 116.572 373.315 110.25 373.315 102.451C373.315 94.652 368.428 88.3298 362.4 88.3298C356.372 88.3298 351.485 94.652 351.485 102.451C351.485 110.25 356.372 116.572 362.4 116.572Z" stroke="#3F3D56" stroke-miterlimit="10"/>
<path d="M334.15 155.725C345.142 155.725 354.053 150.553 354.053 144.172C354.053 137.791 345.142 132.618 334.15 132.618C323.158 132.618 314.247 137.791 314.247 144.172C314.247 150.553 323.158 155.725 334.15 155.725Z" stroke="#3F3D56" stroke-miterlimit="10"/>
<path d="M338.965 137.561C338.971 138.368 338.667 139.147 338.118 139.738C337.858 140.021 337.543 140.248 337.192 140.403C336.84 140.559 336.46 140.64 336.076 140.642H329.656C328.865 140.614 328.117 140.275 327.575 139.697C327.034 139.12 326.743 138.352 326.766 137.561C326.763 136.935 326.946 136.322 327.293 135.801C328.714 135.601 330.147 135.503 331.582 135.507C333.988 135.499 336.386 135.775 338.728 136.328C338.886 136.72 338.967 137.138 338.965 137.561Z" fill="white"/>
<path d="M303.011 101.488C304.784 101.488 306.221 100.051 306.221 98.2789C306.221 96.5064 304.784 95.0696 303.011 95.0696C301.238 95.0696 299.801 96.5064 299.801 98.2789C299.801 100.051 301.238 101.488 303.011 101.488Z" fill="white"/>
<path d="M362.721 101.488C364.494 101.488 365.931 100.051 365.931 98.2789C365.931 96.5064 364.494 95.0696 362.721 95.0696C360.948 95.0696 359.511 96.5064 359.511 98.2789C359.511 100.051 360.948 101.488 362.721 101.488Z" fill="white"/>
<path opacity="0.3" d="M365.931 131.655C367.704 131.655 369.141 130.219 369.141 128.446C369.141 126.674 367.704 125.237 365.931 125.237C364.158 125.237 362.721 126.674 362.721 128.446C362.721 130.219 364.158 131.655 365.931 131.655Z" fill="#226CE0"/>
<path opacity="0.3" d="M287.602 131.655C289.375 131.655 290.812 130.219 290.812 128.446C290.812 126.674 289.375 125.237 287.602 125.237C285.829 125.237 284.391 126.674 284.391 128.446C284.391 130.219 285.829 131.655 287.602 131.655Z" fill="#226CE0"/>
</svg>
