<svg width="1200" height="627" viewBox="0 0 1200 627" fill="none" xmlns="http://www.w3.org/2000/svg">
<rect width="1200" height="627" fill="white"/>
<path d="M143.926 121.922L132.5 110.496C130.156 108.25 126.836 107.762 124.102 109.129L113.75 98.7773V92.625L101.25 83.25L95 89.5L104.375 102H110.43L120.781 112.449C119.512 115.184 119.902 118.504 122.148 120.75L133.574 132.273C135.039 133.641 137.285 133.641 138.75 132.273L143.926 127.098C145.293 125.633 145.293 123.387 143.926 121.922ZM127.324 105.223C130.156 105.223 132.695 106.297 134.648 108.25L136.602 110.203C138.066 109.52 139.531 108.543 140.801 107.273C144.414 103.66 145.684 98.582 144.512 93.9922C144.316 93.1133 143.242 92.8203 142.559 93.4062L135.332 100.73L128.691 99.5586L127.617 92.918L134.844 85.6914C135.527 85.0078 135.137 83.9336 134.258 83.7383C129.668 82.5664 124.59 83.8359 120.977 87.4492C118.145 90.1836 116.875 93.8945 116.875 97.5078L124.98 105.516C125.762 105.32 126.543 105.223 127.324 105.223ZM117.168 113.23L111.699 107.762L96.7578 122.605C94.3164 125.047 94.3164 129.051 96.7578 131.492C99.1992 133.934 103.203 133.934 105.645 131.492L117.656 119.383C116.973 117.43 116.68 115.379 117.168 113.23ZM101.25 129.344C99.8828 129.344 98.9062 128.367 98.9062 127C98.9062 125.73 99.8828 124.656 101.25 124.656C102.52 124.656 103.594 125.73 103.594 127C103.594 128.367 102.52 129.344 101.25 129.344Z" fill="#845EF7"/>
<path d="M270.762 99.6562L263.047 86.375C262.168 84.9102 260.215 84.4219 258.75 85.3008L252.012 89.1094L257.871 98.9727C258.066 99.3633 257.969 99.8516 257.578 100.047L256.211 100.828C255.82 101.023 255.332 100.926 255.137 100.535L249.375 90.5742L243.906 93.6992L246.641 98.2891C246.836 98.6797 246.738 99.168 246.348 99.3633L245.078 100.145C244.688 100.34 244.199 100.242 244.004 99.8516L241.27 95.1641L235.898 98.2891L241.66 108.152C241.953 108.543 241.758 109.031 241.367 109.227L240.098 110.008C239.707 110.203 239.219 110.105 239.023 109.715L233.164 99.7539L227.793 102.879L230.527 107.469C230.723 107.859 230.625 108.348 230.234 108.543L228.867 109.324C228.477 109.52 227.988 109.324 227.793 109.031L225.059 104.344L219.688 107.371L225.547 117.332C225.742 117.723 225.645 118.211 225.254 118.406L223.887 119.188C223.496 119.383 223.008 119.285 222.812 118.895L216.953 108.934L210.215 112.742C208.75 113.621 208.262 115.477 209.141 116.941L216.855 130.223C217.734 131.688 219.688 132.176 221.152 131.297L269.688 103.758C271.152 102.977 271.641 101.121 270.762 99.6562Z" fill="#FCC419"/>
<path d="M377.188 83.25H342.812C340.273 83.25 338.125 85.4961 338.125 87.9375V128.562C338.125 131.102 340.273 133.25 342.812 133.25H377.188C379.629 133.25 381.875 131.102 381.875 128.562V87.9375C381.875 85.4961 379.629 83.25 377.188 83.25ZM350.625 125.828C350.625 126.414 349.941 127 349.355 127H345.547C344.961 127 344.375 126.414 344.375 125.828V122.02C344.375 121.434 344.961 120.75 345.547 120.75H349.355C349.941 120.75 350.625 121.434 350.625 122.02V125.828ZM350.625 113.328C350.625 113.914 349.941 114.5 349.355 114.5H345.547C344.961 114.5 344.375 113.914 344.375 113.328V109.52C344.375 108.934 344.961 108.25 345.547 108.25H349.355C349.941 108.25 350.625 108.934 350.625 109.52V113.328ZM363.125 125.828C363.125 126.414 362.441 127 361.855 127H358.047C357.461 127 356.875 126.414 356.875 125.828V122.02C356.875 121.434 357.461 120.75 358.047 120.75H361.855C362.441 120.75 363.125 121.434 363.125 122.02V125.828ZM363.125 113.328C363.125 113.914 362.441 114.5 361.855 114.5H358.047C357.461 114.5 356.875 113.914 356.875 113.328V109.52C356.875 108.934 357.461 108.25 358.047 108.25H361.855C362.441 108.25 363.125 108.934 363.125 109.52V113.328ZM375.625 125.828C375.625 126.414 374.941 127 374.355 127H370.547C369.961 127 369.375 126.414 369.375 125.828V109.52C369.375 108.934 369.961 108.25 370.547 108.25H374.355C374.941 108.25 375.625 108.934 375.625 109.52V125.828ZM375.625 100.828C375.625 101.414 374.941 102 374.355 102H345.547C344.961 102 344.375 101.414 344.375 100.828V90.7695C344.375 90.1836 344.961 89.5 345.547 89.5H374.355C374.941 89.5 375.625 90.1836 375.625 90.7695V100.828Z" fill="#20C997"/>
<path d="M497.188 105.125H494.844V98.0938C494.844 89.9883 488.105 83.25 480 83.25C471.797 83.25 465.156 89.9883 465.156 98.0938V105.125H462.812C460.176 105.125 458.125 107.273 458.125 109.812V128.562C458.125 131.199 460.176 133.25 462.812 133.25H497.188C499.727 133.25 501.875 131.199 501.875 128.562V109.812C501.875 107.273 499.727 105.125 497.188 105.125ZM487.031 105.125H472.969V98.0938C472.969 94.2852 476.094 91.0625 480 91.0625C483.809 91.0625 487.031 94.2852 487.031 98.0938V105.125Z" fill="#339AF0"/>
<path d="M612.5 88.4258V84.5195C612.5 83.8359 611.914 83.3477 611.328 83.3477C608.105 83.25 603.711 83.3477 600 86.9609C596.289 83.3477 591.992 83.25 588.574 83.3477C587.988 83.3477 587.5 83.8359 587.5 84.5195V88.3281C587.5 89.0117 587.988 89.5 588.672 89.5C591.211 89.5 596.875 89.8906 596.875 94.2852V105.125H593.359C592.676 105.125 592.188 105.711 592.188 106.297V110.203C592.188 110.887 592.676 111.375 593.359 111.375H596.875V122.312C596.875 126.707 591.309 127.098 588.672 127C587.988 127 587.5 127.586 587.5 128.172V132.078C587.5 132.762 587.988 133.25 588.574 133.25C591.797 133.348 596.191 133.25 600 129.637C603.613 133.25 607.91 133.348 611.328 133.25C611.914 133.25 612.5 132.762 612.5 132.078V128.27C612.5 127.586 611.914 127.098 611.23 127.098C608.691 127.098 603.125 126.707 603.125 122.312V111.375H606.641C607.227 111.375 607.812 110.887 607.812 110.203V106.297C607.812 105.711 607.227 105.125 606.641 105.125H603.125V94.2852C603.125 89.8906 608.594 89.5 611.23 89.5977C611.914 89.5977 612.5 89.0117 612.5 88.4258Z" fill="#FF922B"/>
<path d="M718.926 108.348C719.512 107.371 719.609 103.758 718.73 103.758C718.535 103.758 718.438 106.785 718.926 108.348ZM718.828 112.938C718.047 114.891 717.07 117.137 715.996 118.992C717.852 118.309 719.805 117.332 722.148 116.941C720.977 115.965 719.707 114.598 718.828 112.938ZM709.648 125.145C709.648 125.145 710.918 124.559 713.066 121.141C712.383 121.824 710.137 123.582 709.648 125.145ZM725.469 98.875C724.102 98.875 723.125 97.8984 723.125 96.5312V83.25H703.594C702.227 83.25 701.25 84.3242 701.25 85.5938V130.906C701.25 132.273 702.227 133.25 703.594 133.25H736.406C737.676 133.25 738.75 132.273 738.75 130.906V98.875H725.469ZM724.688 115.672C726.543 115.477 730.449 115.086 731.816 116.355C732.988 117.527 732.793 120.652 729.863 120.652C728.301 120.652 725.762 119.871 723.613 118.699C721.27 119.09 718.438 120.164 715.898 121.043C713.457 125.242 711.699 127 709.941 127C709.453 127 708.379 126.707 707.891 126.023C706.035 123.777 710.527 120.75 713.164 119.383C713.164 119.383 713.164 119.383 713.262 119.383C714.434 117.332 716.094 113.719 717.168 110.984C716.387 107.859 715.898 105.32 716.387 103.465C716.973 101.609 720.586 101.316 721.074 104.148C721.562 105.906 720.879 108.641 720.488 110.398C721.367 112.84 722.734 114.5 724.688 115.672ZM738.066 93.5039L728.496 83.9336C728.008 83.543 727.422 83.25 726.836 83.25H726.25V95.75H738.75V95.1641C738.75 94.5781 738.457 93.9922 738.066 93.5039ZM730.742 118.504C731.23 118.211 730.547 117.332 726.641 117.625C730.254 119.188 730.742 118.504 730.742 118.504Z" fill="#94D82D"/>
<path d="M821.25 117.625H811.875C810.117 117.625 808.75 119.09 808.75 120.75V130.125C808.75 131.883 810.117 133.25 811.875 133.25H821.25C822.91 133.25 824.375 131.883 824.375 130.125V120.75C824.375 119.09 822.91 117.625 821.25 117.625ZM818.906 109.812H837.656V114.5H842.344V109.812H861.094V114.5H865.781V108.934C865.781 106.883 864.023 105.125 861.973 105.125H842.344V98.875H846.25C847.91 98.875 849.375 97.5078 849.375 95.75V86.375C849.375 84.7148 847.91 83.25 846.25 83.25H833.75C831.992 83.25 830.625 84.7148 830.625 86.375V95.75C830.625 97.5078 831.992 98.875 833.75 98.875H837.656V105.125H817.93C815.879 105.125 814.219 106.883 814.219 108.934V114.5H818.906V109.812ZM844.688 117.625H835.312C833.555 117.625 832.188 119.09 832.188 120.75V130.125C832.188 131.883 833.555 133.25 835.312 133.25H844.688C846.348 133.25 847.812 131.883 847.812 130.125V120.75C847.812 119.09 846.348 117.625 844.688 117.625ZM868.125 117.625H858.75C856.992 117.625 855.625 119.09 855.625 120.75V130.125C855.625 131.883 856.992 133.25 858.75 133.25H868.125C869.785 133.25 871.25 131.883 871.25 130.125V120.75C871.25 119.09 869.785 117.625 868.125 117.625Z" fill="#ADB5BD"/>
<path d="M981.875 118.309V85.7891C981.875 84.2266 980.898 83.25 979.336 83.25H947.5C942.129 83.25 938.125 87.3516 938.125 92.625V123.875C938.125 129.246 942.129 133.25 947.5 133.25H979.336C980.605 133.25 981.875 132.371 981.875 130.809V129.246C981.875 128.562 981.484 127.977 980.898 127.391C980.605 125.828 980.605 121.434 980.898 120.164C981.484 119.871 981.875 119.188 981.875 118.309ZM952.188 99.6562C952.188 99.2656 952.48 98.875 952.969 98.875H958.438V93.4062C958.438 93.0156 958.73 92.625 959.219 92.625H963.906C964.297 92.625 964.688 93.0156 964.688 93.4062V98.875H970.156C970.547 98.875 970.938 99.2656 970.938 99.6562V104.344C970.938 104.832 970.547 105.125 970.156 105.125H964.688V110.594C964.688 111.082 964.297 111.375 963.906 111.375H959.219C958.73 111.375 958.438 111.082 958.438 110.594V105.125H952.969C952.48 105.125 952.188 104.832 952.188 104.344V99.6562ZM975.234 127H947.5C945.547 127 944.375 125.828 944.375 123.875C944.375 122.02 945.938 120.75 947.5 120.75H975.234V127Z" fill="#22B8CF"/>
<path d="M1098.75 97.3125C1098.75 93.0156 1095.23 89.5 1090.94 89.5C1086.54 89.5 1083.12 93.0156 1083.12 97.3125C1083.12 100.926 1085.47 103.953 1088.69 104.832C1088.59 106.395 1088.3 107.664 1087.62 108.445C1086.15 110.301 1082.83 110.691 1079.32 110.984C1076.58 111.18 1073.65 111.473 1071.41 112.645V98.582C1074.53 97.6055 1076.88 94.5781 1076.88 91.0625C1076.88 86.7656 1073.36 83.25 1069.06 83.25C1064.67 83.25 1061.25 86.7656 1061.25 91.0625C1061.25 94.5781 1063.5 97.6055 1066.72 98.582V118.016C1063.5 118.992 1061.25 122.02 1061.25 125.438C1061.25 129.832 1064.67 133.25 1069.06 133.25C1073.36 133.25 1076.88 129.832 1076.88 125.438C1076.88 122.117 1074.73 119.285 1071.8 118.211C1072.09 117.723 1072.58 117.234 1073.26 116.844C1074.82 116.062 1077.27 115.867 1079.71 115.672C1083.91 115.281 1088.5 114.793 1091.33 111.375C1092.7 109.715 1093.38 107.469 1093.38 104.734C1096.5 103.758 1098.75 100.828 1098.75 97.3125ZM1069.06 89.5C1069.84 89.5 1070.62 90.2812 1070.62 91.0625C1070.62 91.9414 1069.84 92.625 1069.06 92.625C1068.18 92.625 1067.5 91.9414 1067.5 91.0625C1067.5 90.2812 1068.18 89.5 1069.06 89.5ZM1069.06 127C1068.18 127 1067.5 126.316 1067.5 125.438C1067.5 124.656 1068.18 123.875 1069.06 123.875C1069.84 123.875 1070.62 124.656 1070.62 125.438C1070.62 126.316 1069.84 127 1069.06 127ZM1090.94 95.75C1091.72 95.75 1092.5 96.5312 1092.5 97.3125C1092.5 98.1914 1091.72 98.875 1090.94 98.875C1090.06 98.875 1089.38 98.1914 1089.38 97.3125C1089.38 96.5312 1090.06 95.75 1090.94 95.75Z" fill="#F06595"/>
<path d="M120 221.174C106.621 221.174 95.7812 232.014 95.7812 245.393C95.7812 258.772 106.621 269.612 120 269.612C133.379 269.612 144.219 258.772 144.219 245.393C144.219 232.014 133.379 221.174 120 221.174ZM128.984 251.741L127.031 254.182C126.738 254.573 126.348 254.866 125.762 254.866C125.469 254.866 125.078 254.67 124.883 254.475L118.34 249.592C117.363 248.908 116.875 247.834 116.875 246.565V231.33C116.875 230.549 117.559 229.768 118.438 229.768H121.562C122.344 229.768 123.125 230.549 123.125 231.33V245.393L128.789 249.592C129.082 249.885 129.375 250.276 129.375 250.764C129.375 251.155 129.18 251.545 128.984 251.741Z" fill="#ADB5BD"/>
<path d="M218.125 242.268H236.875V223.518H218.125V242.268ZM224.375 229.768H230.625V236.018H224.375V229.768ZM243.125 223.518V242.268H261.875V223.518H243.125ZM255.625 236.018H249.375V229.768H255.625V236.018ZM218.125 267.268H236.875V248.518H218.125V267.268ZM224.375 254.768H230.625V261.018H224.375V254.768ZM258.75 248.518V251.643H252.5V248.518H243.125V267.268H249.375V257.893H252.5V261.018H261.875V248.518H258.75ZM258.75 264.143V267.268H261.875V264.143H258.75ZM252.5 264.143V267.268H255.625V264.143H252.5Z" fill="#F06595"/>
<path d="M381.68 242.463C380.996 238.85 377.871 236.018 374.062 236.018C372.793 236.018 371.719 236.311 370.645 236.799C368.984 234.455 366.25 232.893 363.125 232.893C357.949 232.893 353.75 237.092 353.75 242.268C353.75 242.366 353.75 242.463 353.75 242.463C350.137 243.147 347.5 246.369 347.5 250.08C347.5 254.475 350.918 257.893 355.312 257.893H380.312C384.609 257.893 388.125 254.475 388.125 250.08C388.125 246.272 385.293 243.147 381.68 242.463ZM343.984 245.783C340.273 242.17 340.273 236.213 343.984 232.6C347.305 229.182 352.676 228.987 356.289 231.819C358.242 230.549 360.586 229.768 363.125 229.768C363.125 229.768 363.223 229.866 363.32 229.866L364.102 227.229C364.492 226.252 363.516 225.276 362.539 225.666L355.215 228.108L351.699 221.174C351.211 220.198 349.941 220.198 349.453 221.174L345.938 228.108L338.613 225.666C337.637 225.276 336.66 226.252 337.051 227.229L339.492 234.553L332.559 238.069C331.582 238.557 331.582 239.826 332.559 240.315L339.492 243.83L337.051 251.155C336.66 252.131 337.637 253.108 338.613 252.717L344.375 250.862C344.375 250.569 344.375 250.373 344.375 250.178C344.375 248.908 344.57 247.737 344.961 246.662C344.57 246.369 344.277 246.076 343.984 245.783ZM350.723 240.119C351.211 237.776 352.285 235.627 353.848 233.869C352.969 233.283 351.797 232.893 350.625 232.893C347.109 232.893 344.375 235.725 344.375 239.143C344.375 240.998 345.156 242.658 346.426 243.83C347.5 242.268 348.965 240.998 350.723 240.119ZM383.047 261.311C382.266 260.823 381.387 261.116 380.898 261.897L377.383 268.147C376.895 268.83 377.188 269.807 377.969 270.198C378.164 270.393 378.457 270.393 378.75 270.393C379.238 270.393 379.727 270.198 380.02 269.612L383.633 263.362C384.023 262.678 383.828 261.701 383.047 261.311ZM373.672 261.311C372.891 260.823 372.012 261.116 371.523 261.897L368.008 268.147C367.52 268.83 367.812 269.807 368.594 270.198C368.789 270.393 369.082 270.393 369.375 270.393C369.863 270.393 370.352 270.198 370.645 269.612L374.258 263.362C374.648 262.678 374.453 261.701 373.672 261.311ZM364.297 261.311C363.516 260.823 362.637 261.116 362.148 261.897L358.633 268.147C358.145 268.83 358.438 269.807 359.219 270.198C359.414 270.393 359.707 270.393 360 270.393C360.488 270.393 360.977 270.198 361.27 269.612L364.883 263.362C365.273 262.678 365.078 261.701 364.297 261.311ZM354.922 261.311C354.141 260.823 353.262 261.116 352.773 261.897L349.258 268.147C348.77 268.83 349.062 269.807 349.844 270.198C350.039 270.393 350.332 270.393 350.625 270.393C351.113 270.393 351.602 270.198 351.895 269.612L355.508 263.362C355.898 262.678 355.703 261.701 354.922 261.311Z" fill="#94D82D"/>
<path d="M491.133 233.479L487.031 237.58C485.566 239.045 486.641 241.487 488.691 241.487H501.875C503.145 241.487 504.219 240.51 504.219 239.143V226.057C504.219 224.006 501.68 222.932 500.215 224.397L496.699 227.912C492.305 223.811 486.445 221.174 480 221.174C468.086 221.174 458.223 229.67 456.172 240.901C455.977 241.682 456.562 242.268 457.344 242.268H462.91C463.398 242.268 463.887 241.975 464.082 241.389C465.84 234.26 472.383 229.084 479.902 228.987C484.102 228.987 488.105 230.647 491.133 233.479ZM458.125 249.299C456.758 249.299 455.781 250.373 455.781 251.643V264.826C455.781 266.877 458.223 267.951 459.688 266.487L463.203 262.971C467.598 267.073 473.457 269.612 480 269.612C491.816 269.612 501.68 261.213 503.73 249.983C503.926 249.201 503.34 248.616 502.559 248.616H496.992C496.504 248.616 496.016 248.908 495.82 249.494C494.062 256.623 487.52 261.799 480 261.897C475.801 261.897 471.797 260.237 468.77 257.405L472.871 253.303C474.336 251.838 473.262 249.299 471.211 249.299H458.125Z" fill="#CC5DE8"/>
<path d="M620.312 223.518H579.688C577.051 223.518 575 225.666 575 228.205V262.58C575 265.217 577.051 267.268 579.688 267.268H620.312C622.852 267.268 625 265.217 625 262.58V228.205C625 225.666 622.852 223.518 620.312 223.518ZM596.875 261.018H581.25V251.643H596.875V261.018ZM596.875 245.393H581.25V236.018H596.875V245.393ZM618.75 261.018H603.125V251.643H618.75V261.018ZM618.75 245.393H603.125V236.018H618.75V245.393Z" fill="#5C7CFA"/>
<path d="M732.5 251.643C730.254 251.643 728.203 252.424 726.641 253.694L716.582 247.444C716.777 246.858 716.777 246.174 716.777 245.393C716.777 244.709 716.777 244.026 716.582 243.44L726.641 237.19C728.203 238.459 730.254 239.143 732.5 239.143C737.676 239.143 741.875 235.041 741.875 229.768C741.875 224.592 737.676 220.393 732.5 220.393C727.227 220.393 723.125 224.592 723.125 229.768C723.125 230.549 723.125 231.233 723.32 231.819L713.262 238.069C711.699 236.799 709.648 236.018 707.5 236.018C702.227 236.018 698.125 240.217 698.125 245.393C698.125 250.666 702.227 254.768 707.5 254.768C709.648 254.768 711.699 254.084 713.262 252.815L723.32 259.065C723.125 259.651 723.125 260.334 723.125 261.116V261.018C723.125 266.291 727.227 270.393 732.5 270.393C737.676 270.393 741.875 266.291 741.875 261.018C741.875 255.842 737.676 251.643 732.5 251.643Z" fill="#FF6B6B"/>
<path d="M818.125 265.705C818.125 268.342 820.176 270.393 822.812 270.393H857.188C859.727 270.393 861.875 268.342 861.875 265.705V239.143H818.125V265.705ZM849.375 246.565C849.375 245.979 849.863 245.393 850.547 245.393H854.453C855.039 245.393 855.625 245.979 855.625 246.565V250.471C855.625 251.155 855.039 251.643 854.453 251.643H850.547C849.863 251.643 849.375 251.155 849.375 250.471V246.565ZM849.375 259.065C849.375 258.479 849.863 257.893 850.547 257.893H854.453C855.039 257.893 855.625 258.479 855.625 259.065V262.971C855.625 263.655 855.039 264.143 854.453 264.143H850.547C849.863 264.143 849.375 263.655 849.375 262.971V259.065ZM836.875 246.565C836.875 245.979 837.363 245.393 838.047 245.393H841.953C842.539 245.393 843.125 245.979 843.125 246.565V250.471C843.125 251.155 842.539 251.643 841.953 251.643H838.047C837.363 251.643 836.875 251.155 836.875 250.471V246.565ZM836.875 259.065C836.875 258.479 837.363 257.893 838.047 257.893H841.953C842.539 257.893 843.125 258.479 843.125 259.065V262.971C843.125 263.655 842.539 264.143 841.953 264.143H838.047C837.363 264.143 836.875 263.655 836.875 262.971V259.065ZM824.375 246.565C824.375 245.979 824.863 245.393 825.547 245.393H829.453C830.039 245.393 830.625 245.979 830.625 246.565V250.471C830.625 251.155 830.039 251.643 829.453 251.643H825.547C824.863 251.643 824.375 251.155 824.375 250.471V246.565ZM824.375 259.065C824.375 258.479 824.863 257.893 825.547 257.893H829.453C830.039 257.893 830.625 258.479 830.625 259.065V262.971C830.625 263.655 830.039 264.143 829.453 264.143H825.547C824.863 264.143 824.375 263.655 824.375 262.971V259.065ZM857.188 226.643H852.5V221.955C852.5 221.174 851.719 220.393 850.938 220.393H847.812C846.934 220.393 846.25 221.174 846.25 221.955V226.643H833.75V221.955C833.75 221.174 832.969 220.393 832.188 220.393H829.062C828.184 220.393 827.5 221.174 827.5 221.955V226.643H822.812C820.176 226.643 818.125 228.791 818.125 231.33V236.018H861.875V231.33C861.875 228.791 859.727 226.643 857.188 226.643Z" fill="#CC5DE8"/>
<path d="M984.902 248.518H961.758L977.188 264.045C977.773 264.631 978.75 264.631 979.336 264.045C983.145 260.53 985.781 255.744 986.465 250.276C986.66 249.397 985.879 248.518 984.902 248.518ZM983.34 242.268C982.559 230.549 973.281 221.272 961.562 220.491C960.684 220.393 960 221.174 960 222.053V243.83H981.777C982.656 243.83 983.438 243.147 983.34 242.268ZM955.312 248.518V225.373C955.312 224.494 954.434 223.713 953.555 223.811C941.836 225.471 932.949 235.627 933.438 247.834C933.828 260.334 944.57 270.588 957.168 270.393C962.051 270.393 966.641 268.83 970.352 266.096C971.133 265.608 971.133 264.436 970.449 263.752L955.312 248.518Z" fill="#51CF66"/>
<path d="M1080 261.018C1091.13 261.018 1100.31 251.936 1100.31 240.705C1100.31 229.573 1091.13 220.393 1080 220.393C1068.77 220.393 1059.69 229.573 1059.69 240.705C1059.69 251.936 1068.77 261.018 1080 261.018ZM1077.75 229.963V228.303C1077.75 227.424 1078.54 226.643 1079.41 226.643H1080.49C1081.37 226.643 1082.15 227.424 1082.15 228.303V229.963C1083.61 230.061 1085.08 230.549 1086.35 231.428C1086.84 231.916 1086.93 232.698 1086.45 233.186L1084.88 234.651C1084.49 235.041 1083.91 235.041 1083.52 234.748C1082.93 234.455 1082.34 234.26 1081.76 234.26H1077.95C1077.07 234.26 1076.39 235.041 1076.39 236.018C1076.39 236.799 1076.88 237.58 1077.56 237.776L1083.61 239.631C1086.15 240.315 1087.91 242.756 1087.91 245.491C1087.91 248.811 1085.27 251.448 1082.15 251.545V253.205C1082.15 254.084 1081.37 254.768 1080.49 254.768H1079.41C1078.54 254.768 1077.75 254.084 1077.75 253.205V251.545C1076.29 251.448 1074.82 250.959 1073.55 249.983C1073.07 249.592 1072.97 248.811 1073.46 248.323L1075.02 246.858C1075.41 246.467 1076 246.467 1076.39 246.76C1076.97 247.053 1077.56 247.248 1078.14 247.248H1081.95C1082.83 247.248 1083.52 246.467 1083.52 245.491C1083.52 244.612 1083.03 243.928 1082.34 243.733L1076.29 241.877C1073.75 241.194 1071.99 238.752 1071.99 236.018C1071.99 232.698 1074.63 230.061 1077.75 229.963ZM1101.88 254.768H1098.65C1096.7 257.307 1094.26 259.455 1091.52 261.018H1097.77C1098.26 261.018 1098.65 261.408 1098.65 261.799V263.362C1098.65 263.85 1098.26 264.143 1097.77 264.143H1062.13C1061.64 264.143 1061.25 263.85 1061.25 263.362V261.799C1061.25 261.408 1061.64 261.018 1062.13 261.018H1068.38C1065.64 259.455 1063.2 257.307 1061.25 254.768H1058.12C1056.37 254.768 1055 256.233 1055 257.893V267.268C1055 269.026 1056.37 270.393 1058.12 270.393H1101.88C1103.54 270.393 1105 269.026 1105 267.268V257.893C1105 256.233 1103.54 254.768 1101.88 254.768Z" fill="#FCC419"/>
<path d="M138.75 357.536H101.25C97.7344 357.536 95 360.368 95 363.786V391.911C95 395.426 97.7344 398.161 101.25 398.161H110.625V406.364C110.625 407.34 111.699 407.926 112.48 407.34L124.688 398.161H138.75C142.168 398.161 145 395.426 145 391.911V363.786C145 360.368 142.168 357.536 138.75 357.536Z" fill="#94D82D"/>
<path d="M227.5 382.536C233.457 382.536 238.438 377.653 238.438 371.598C238.438 365.641 233.457 360.661 227.5 360.661C221.445 360.661 216.562 365.641 216.562 371.598C216.562 377.653 221.445 382.536 227.5 382.536ZM234.922 385.661H234.141C232.09 386.637 229.844 387.223 227.5 387.223C225.059 387.223 222.812 386.637 220.762 385.661H219.98C213.73 385.661 208.75 390.739 208.75 396.989V399.723C208.75 402.36 210.801 404.411 213.438 404.411H241.562C244.102 404.411 246.25 402.36 246.25 399.723V396.989C246.25 390.739 241.172 385.661 234.922 385.661ZM255.625 382.536C260.801 382.536 265 378.336 265 373.161C265 367.985 260.801 363.786 255.625 363.786C250.449 363.786 246.25 367.985 246.25 373.161C246.25 378.336 250.449 382.536 255.625 382.536ZM260.312 385.661H259.922C258.555 386.149 257.09 386.442 255.625 386.442C254.062 386.442 252.598 386.149 251.23 385.661H250.938C248.887 385.661 247.031 386.247 245.469 387.223C247.812 389.762 249.375 393.18 249.375 396.989V400.7C249.375 400.895 249.277 401.09 249.277 401.286H266.562C269.102 401.286 271.25 399.235 271.25 396.598C271.25 390.641 266.27 385.661 260.312 385.661Z" fill="#FCC419"/>
<path d="M366.836 375.7C366.25 375.114 365.566 374.528 364.883 374.04C364.199 373.551 363.418 373.649 362.832 374.137L360.781 376.188C360 377.067 359.609 378.141 359.609 379.118C359.609 379.704 359.902 380.094 360.293 380.387C360.586 380.583 360.977 380.876 361.367 381.169C364.102 384.001 364.102 388.395 361.367 391.129L354.727 397.672C351.992 400.504 347.5 400.504 344.766 397.672C342.031 394.938 342.129 390.446 344.863 387.711L346.133 386.442C346.621 386.051 346.719 385.368 346.523 384.782C345.938 383.122 345.645 381.364 345.547 379.704C345.547 378.336 343.887 377.653 342.91 378.629L339.297 382.243C333.535 388.004 333.535 397.477 339.297 403.239C345.059 409.001 354.531 409.001 360.293 403.239L366.836 396.696C366.836 396.696 366.836 396.696 366.836 396.598C372.598 390.934 372.695 381.559 366.836 375.7ZM380.605 361.93C374.844 356.169 365.371 356.169 359.609 361.93L353.066 368.473C353.066 368.473 353.066 368.473 353.066 368.571C347.305 374.235 347.207 383.61 353.066 389.469C353.652 390.055 354.336 390.641 355.02 391.129C355.703 391.618 356.484 391.52 357.07 391.032L359.121 388.981C359.902 388.102 360.293 387.028 360.293 386.051C360.293 385.465 360 385.075 359.609 384.782C359.316 384.586 358.926 384.294 358.535 384.001C355.801 381.169 355.801 376.774 358.535 374.04L365.176 367.497C367.91 364.665 372.402 364.665 375.137 367.497C377.871 370.231 377.773 374.723 375.039 377.458L373.77 378.727C373.281 379.118 373.184 379.801 373.379 380.387C373.965 382.047 374.258 383.805 374.355 385.465C374.355 386.833 376.016 387.516 376.992 386.54L380.605 382.926C386.367 377.165 386.367 367.692 380.605 361.93Z" fill="#22B8CF"/>
<path d="M468.574 361.051C468.379 360.856 468.086 360.661 467.793 360.661C467.402 360.661 467.109 360.856 466.914 361.051L460.664 367.204L458.516 365.055C458.32 364.86 458.027 364.762 457.637 364.762C457.344 364.762 457.051 364.86 456.855 365.055L455.293 366.618C455.098 366.813 454.902 367.106 454.902 367.399C454.902 367.79 455.098 368.083 455.293 368.278L459.98 372.868C460.176 373.063 460.469 373.258 460.762 373.258C461.152 373.258 461.445 373.063 461.641 372.868L463.203 371.403L470.234 364.274C470.43 364.079 470.625 363.786 470.625 363.493C470.625 363.2 470.43 362.907 470.234 362.614L468.574 361.051ZM468.574 376.579C468.379 376.383 468.086 376.286 467.793 376.286C467.402 376.286 467.109 376.383 466.914 376.579L460.664 382.829L458.516 380.68C458.32 380.485 458.027 380.29 457.637 380.29C457.344 380.29 457.051 380.485 456.855 380.68L455.293 382.145C455.098 382.438 454.902 382.731 454.902 383.024C454.902 383.317 455.098 383.61 455.293 383.805L459.98 388.493C460.176 388.688 460.469 388.883 460.762 388.883C461.152 388.883 461.445 388.688 461.641 388.493L463.203 386.93L470.234 379.899C470.43 379.704 470.625 379.411 470.625 379.118C470.625 378.727 470.43 378.434 470.234 378.239L468.574 376.579ZM461.25 393.473C458.613 393.473 456.465 395.622 456.465 398.161C456.465 400.797 458.613 402.848 461.25 402.848C463.789 402.848 465.938 400.797 465.938 398.161C465.938 395.622 463.789 393.473 461.25 393.473ZM503.438 395.036H475.312C474.434 395.036 473.75 395.817 473.75 396.598V399.723C473.75 400.602 474.434 401.286 475.312 401.286H503.438C504.219 401.286 505 400.602 505 399.723V396.598C505 395.817 504.219 395.036 503.438 395.036ZM503.438 363.786H475.312C474.434 363.786 473.75 364.567 473.75 365.348V368.473C473.75 369.352 474.434 370.036 475.312 370.036H503.438C504.219 370.036 505 369.352 505 368.473V365.348C505 364.567 504.219 363.786 503.438 363.786ZM503.438 379.411H475.312C474.434 379.411 473.75 380.192 473.75 380.973V384.098C473.75 384.977 474.434 385.661 475.312 385.661H503.438C504.219 385.661 505 384.977 505 384.098V380.973C505 380.192 504.219 379.411 503.438 379.411Z" fill="#845EF7"/>
<path d="M620.508 365.739L601.758 357.926C601.172 357.731 600.586 357.633 600 357.633C599.316 357.633 598.73 357.731 598.145 357.926L579.395 365.739C577.637 366.52 576.562 368.18 576.562 370.036C576.562 389.469 587.695 402.848 598.145 407.243C599.316 407.731 600.586 407.731 601.758 407.243C610.156 403.727 623.438 391.715 623.438 370.036C623.438 368.18 622.266 366.52 620.508 365.739ZM600 401.188V363.981L617.09 371.11C616.797 385.856 609.082 396.598 600 401.188Z" fill="#ADB5BD"/>
<path d="M695.781 382.536C695.781 395.915 706.621 406.754 720 406.754C733.281 406.754 744.219 395.915 744.219 382.536C744.219 369.254 733.281 358.317 720 358.317C706.621 358.317 695.781 369.254 695.781 382.536ZM720 400.504V364.567C729.863 364.567 737.969 372.672 737.969 382.536C737.969 392.497 729.863 400.504 720 400.504Z" fill="#F06595"/>
<path d="M830.332 384.098H833.945L832.188 378.922L830.332 384.098ZM849.375 382.536C848.008 382.536 847.031 383.61 847.031 384.879C847.031 386.247 848.008 387.223 849.375 387.223C850.645 387.223 851.719 386.247 851.719 384.879C851.719 383.61 850.645 382.536 849.375 382.536ZM860.312 363.786H819.688C817.051 363.786 815 365.934 815 368.473V396.598C815 399.235 817.051 401.286 819.688 401.286H860.312C862.852 401.286 865 399.235 865 396.598V368.473C865 365.934 862.852 363.786 860.312 363.786ZM839.414 391.911H837.754C837.07 391.911 836.484 391.52 836.289 390.934L835.605 388.786H828.672L827.988 390.934C827.793 391.52 827.207 392.008 826.523 392.008V391.911H824.863C823.789 391.911 823.008 390.934 823.398 389.86L828.672 374.821C828.965 373.844 829.844 373.161 830.82 373.161H833.457C834.434 373.161 835.312 373.844 835.703 374.821L840.879 389.86C841.27 390.934 840.488 391.911 839.414 391.911ZM856.406 390.348C856.406 391.227 855.625 391.911 854.844 391.911H853.281C852.793 391.911 852.305 391.715 852.109 391.422C851.23 391.715 850.254 391.911 849.375 391.911C845.469 391.911 842.344 388.786 842.344 384.879C842.344 381.071 845.469 377.848 849.375 377.848C850.156 377.848 850.938 378.044 851.719 378.336V374.723C851.719 373.942 852.402 373.161 853.281 373.161H854.844C855.625 373.161 856.406 373.942 856.406 374.723V390.348Z" fill="#20C997"/>
<path d="M956.094 357.536C954.727 357.536 953.75 358.61 953.75 359.879V376.286H945.156C943.398 376.286 942.52 378.434 943.789 379.704L958.633 394.547C959.316 395.231 960.586 395.231 961.27 394.547L976.113 379.704C977.383 378.434 976.504 376.286 974.746 376.286H966.25V359.879C966.25 358.61 965.176 357.536 963.906 357.536H956.094ZM985 394.254C985 392.985 983.926 391.911 982.656 391.911H968.301L963.516 396.696C961.562 398.747 958.34 398.747 956.387 396.696L951.602 391.911H937.344C935.977 391.911 935 392.985 935 394.254V405.192C935 406.559 935.977 407.536 937.344 407.536H982.656C983.926 407.536 985 406.559 985 405.192V394.254ZM972.891 402.848C972.891 403.922 972.012 404.801 970.938 404.801C969.863 404.801 968.984 403.922 968.984 402.848C968.984 401.774 969.863 400.895 970.938 400.895C972.012 400.895 972.891 401.774 972.891 402.848ZM979.141 402.848C979.141 403.922 978.262 404.801 977.188 404.801C976.113 404.801 975.234 403.922 975.234 402.848C975.234 401.774 976.113 400.895 977.188 400.895C978.262 400.895 979.141 401.774 979.141 402.848Z" fill="#339AF0"/>
<path d="M1080 358.317C1066.62 358.317 1055.78 369.157 1055.78 382.536C1055.78 395.915 1066.62 406.754 1080 406.754C1093.38 406.754 1104.22 395.915 1104.22 382.536C1104.22 369.157 1093.38 358.317 1080 358.317ZM1066.72 379.411C1067.01 375.309 1069.84 372.379 1072.19 372.379C1074.43 372.379 1077.27 375.309 1077.66 379.411C1077.66 380.192 1076.58 380.583 1076.19 379.801L1075.21 378.141C1074.43 376.872 1073.36 376.09 1072.19 376.09C1070.92 376.09 1069.84 376.872 1069.06 378.141L1068.18 379.801C1067.7 380.583 1066.62 380.192 1066.72 379.411ZM1091.13 391.422C1088.4 394.743 1084.3 396.598 1080 396.598C1075.61 396.598 1071.5 394.743 1068.77 391.422C1067.4 389.762 1069.84 387.809 1071.11 389.372C1073.36 392.008 1076.58 393.473 1080 393.473C1083.42 393.473 1086.54 392.008 1088.79 389.372C1090.06 387.809 1092.5 389.762 1091.13 391.422ZM1091.82 379.801L1090.84 378.141C1090.06 376.872 1088.98 376.09 1087.81 376.09C1086.54 376.09 1085.47 376.872 1084.69 378.141L1083.81 379.801C1083.32 380.583 1082.25 380.192 1082.34 379.411C1082.64 375.309 1085.47 372.379 1087.81 372.379C1090.06 372.379 1092.89 375.309 1093.28 379.411C1093.28 380.192 1092.21 380.583 1091.82 379.801Z" fill="#FF922B"/>
<path d="M120 533.741C112.578 533.741 106.523 528.077 106.035 520.753L95.7812 512.843C94.4141 514.6 93.1445 516.358 92.168 518.311C91.9727 518.702 91.875 519.19 91.875 519.679C91.875 520.265 91.9727 520.753 92.168 521.143C97.4414 531.495 107.988 538.429 120 538.429C122.539 538.429 125.078 538.038 127.52 537.452L122.539 533.546C121.66 533.741 120.781 533.741 120 533.741ZM150.566 539.503L139.824 531.104C143.047 528.37 145.781 524.952 147.734 521.143C147.93 520.753 148.027 520.265 148.027 519.776C148.027 519.19 147.93 518.702 147.734 518.311C142.461 507.96 131.914 500.929 120 500.929C114.727 501.026 109.844 502.296 105.547 504.64L93.1445 495.069C92.8516 494.874 92.5586 494.776 92.168 494.776C91.6797 494.776 91.1914 494.972 90.9961 495.362L89.043 497.804C88.8477 498.097 88.75 498.39 88.75 498.78C88.75 499.268 88.9453 499.659 89.3359 499.952L146.758 544.386C147.051 544.581 147.344 544.679 147.734 544.679C148.223 544.679 148.711 544.483 149.004 544.093L150.859 541.651C151.055 541.358 151.152 541.065 151.152 540.675C151.152 540.186 150.957 539.796 150.566 539.503ZM132.695 525.636L128.789 522.608C129.18 521.729 129.277 520.753 129.375 519.679C129.375 519.679 129.375 519.679 129.375 519.581C129.375 514.503 125.176 510.304 120.098 510.304C119.219 510.304 118.34 510.499 117.461 510.694C118.047 511.475 118.34 512.452 118.438 513.429C118.34 513.819 118.34 514.112 118.242 514.405L111.016 508.936C113.457 506.886 116.582 505.714 120 505.616C127.715 505.616 134.062 511.964 134.062 519.679C134.062 521.827 133.477 523.78 132.695 525.636Z" fill="#5C7CFA"/>
<path d="M240 495.46C226.621 495.46 215.781 506.397 215.781 519.679C215.781 533.057 226.621 543.897 240 543.897C253.281 543.897 264.219 533.057 264.219 519.679C264.219 506.397 253.281 495.46 240 495.46ZM251.426 529.347C251.23 529.542 247.52 533.839 240.684 533.839C232.383 533.839 226.523 527.686 226.523 519.581C226.523 511.671 232.578 505.616 240.586 505.616C247.129 505.616 250.547 509.229 250.645 509.425C250.84 509.62 251.035 509.913 251.035 510.206C251.035 510.401 250.938 510.694 250.84 510.89L248.594 514.21C248.203 514.796 247.422 514.991 246.836 514.405C246.836 514.405 244.297 512.159 240.781 512.159C236.289 512.159 233.555 515.382 233.555 519.581C233.555 523.39 236.094 527.296 240.879 527.296C244.59 527.296 247.227 524.561 247.227 524.561C247.715 523.975 248.594 524.073 249.082 524.659L251.426 527.882C251.621 528.077 251.621 528.37 251.621 528.565C251.621 528.858 251.523 529.151 251.426 529.347Z" fill="#94D82D"/>
<path d="M335.781 519.679C335.781 533.057 346.621 543.897 360 543.897C373.281 543.897 384.219 533.057 384.219 519.679C384.219 506.397 373.281 495.46 360 495.46C346.621 495.46 335.781 506.397 335.781 519.679ZM360 537.647V501.71C369.863 501.71 377.969 509.815 377.969 519.679C377.969 529.64 369.863 537.647 360 537.647Z" fill="#845EF7"/>
<path d="M471.797 516.847C470.332 516.554 469.062 517.725 469.062 519.19V524.073C469.062 525.147 469.746 525.929 470.625 526.222C472.383 526.905 473.75 528.663 473.75 530.616C473.75 533.253 471.602 535.304 469.062 535.304C466.426 535.304 464.375 533.253 464.375 530.616V506.397C464.375 505.128 463.301 504.054 462.031 504.054H457.344C455.977 504.054 455 505.128 455 506.397V530.616C455 539.405 463.008 546.339 472.09 544.386C477.363 543.311 481.66 539.015 482.734 533.643C484.492 525.636 479.121 518.311 471.797 516.847ZM475.41 494.679C474.434 494.679 473.75 495.362 473.75 496.241V499.366C473.75 500.245 474.336 500.929 475.215 500.929C487.812 501.612 497.969 511.866 498.652 524.464C498.75 525.343 499.434 525.929 500.215 525.929H503.34C504.316 525.929 505 525.245 504.902 524.268C504.121 508.35 491.328 495.557 475.41 494.679ZM475.41 504.054C474.531 504.054 473.75 504.737 473.75 505.714V508.839C473.75 509.62 474.336 510.304 475.117 510.401C482.637 510.987 488.594 517.042 489.277 524.561C489.375 525.343 490.059 525.929 490.84 525.929H493.965C494.941 525.929 495.625 525.147 495.527 524.268C494.746 513.526 486.152 504.932 475.41 504.054Z" fill="#FF6B6B"/>
<path d="M600 495.46C586.621 495.46 575.781 506.397 575.781 519.679C575.781 533.057 586.621 543.897 600 543.897C613.281 543.897 624.219 533.057 624.219 519.679C624.219 506.397 613.281 495.46 600 495.46ZM598.828 518.995C598.535 519.483 598.047 519.679 597.461 519.679C597.07 519.679 596.68 519.874 596.387 520.167L595.801 520.753C595.508 521.046 595.508 521.534 595.801 521.827L596.387 522.413C596.68 522.706 596.875 523.097 596.875 523.487V524.366C596.875 525.245 596.094 525.929 595.312 525.929H594.629C594.043 525.929 593.555 525.636 593.262 525.147L591.016 520.655C590.82 520.265 590.234 520.069 589.844 520.46L587.891 522.413C587.598 522.706 587.207 522.804 586.816 522.804H580.664C580.566 521.827 580.469 520.753 580.469 519.679C580.469 508.936 589.16 500.147 600 500.147C602.051 500.147 604.102 500.538 605.957 501.124L601.074 504.932C600.586 505.225 600.586 506.007 601.172 506.3L602.246 506.788C602.734 507.081 603.125 507.569 603.125 508.155V515.772C603.125 516.261 602.734 516.554 602.344 516.554H601.953C601.66 516.554 601.465 516.456 601.27 516.163C601.172 515.87 600.684 515.87 600.586 516.163L598.828 518.995ZM615.625 529.737C615.625 530.128 615.43 530.518 615.137 530.811L614.16 531.788C613.867 532.081 613.477 532.179 613.086 532.179H611.621C611.23 532.179 610.742 532.081 610.449 531.788L609.18 530.518C608.789 530.03 608.105 529.737 607.422 529.737C607.129 529.737 606.934 529.737 606.738 529.835L604.688 530.323C604.492 530.323 604.395 530.421 604.297 530.421H603.32C602.832 530.421 602.441 530.225 602.148 529.932L600.977 528.761C600.879 528.663 600.781 528.468 600.781 528.175V527.198C600.781 526.905 600.977 526.612 601.27 526.515L605.078 524.952C605.273 524.854 605.469 524.757 605.664 524.659L608.008 522.999C608.105 522.901 608.301 522.901 608.398 522.901H609.57C609.961 522.901 610.254 522.999 610.352 523.292L610.84 524.561C610.938 524.757 611.035 524.854 611.23 524.854H611.621C611.719 524.854 611.914 524.757 611.914 524.561L612.402 523.097C612.402 522.999 612.598 522.901 612.695 522.901H613.379C613.574 522.901 613.77 522.999 613.77 523.292V524.464C613.77 524.757 613.77 524.952 613.965 525.05L615.137 526.222C615.43 526.515 615.527 526.905 615.527 527.296V529.737H615.625Z" fill="#51CF66"/>
<path d="M744.316 511.768L740.41 507.96C739.531 506.983 737.969 506.983 737.09 507.96L713.75 531.3L702.812 520.46C701.934 519.483 700.469 519.483 699.492 520.46L695.684 524.268C694.707 525.245 694.707 526.71 695.684 527.589L712.09 543.995C712.969 544.972 714.434 544.972 715.312 543.995L744.219 515.089C745.195 514.21 745.195 512.745 744.316 511.768ZM712.578 522.12C713.164 522.804 714.238 522.804 714.824 522.12L735.137 501.807C735.723 501.222 735.723 500.245 735.137 499.561L730.742 495.167C730.059 494.581 729.082 494.581 728.496 495.167L713.75 510.011L708.281 504.542C707.695 503.956 706.719 503.956 706.133 504.542L701.641 508.936C701.055 509.62 701.055 510.597 701.641 511.182L712.578 522.12Z" fill="#CC5DE8"/>
<path d="M861.875 501.905C861.875 497.901 852.012 494.679 840 494.679C827.891 494.679 818.125 497.901 818.125 501.905V506.3C818.125 510.304 827.891 513.429 840 513.429C852.012 513.429 861.875 510.304 861.875 506.3V501.905ZM861.875 511.866C857.09 515.186 848.496 516.651 840 516.651C831.406 516.651 822.812 515.186 818.125 511.866V521.925C818.125 525.929 827.891 529.054 840 529.054C852.012 529.054 861.875 525.929 861.875 521.925V511.866ZM861.875 527.491C857.09 530.811 848.496 532.276 840 532.276C831.406 532.276 822.812 530.811 818.125 527.491V537.55C818.125 541.554 827.891 544.679 840 544.679C852.012 544.679 861.875 541.554 861.875 537.55V527.491Z" fill="#FCC419"/>
<path d="M984.902 522.804H961.758L977.188 538.331C977.773 538.917 978.75 538.917 979.336 538.331C983.145 534.815 985.781 530.03 986.465 524.561C986.66 523.682 985.879 522.804 984.902 522.804ZM983.34 516.554C982.559 504.835 973.281 495.557 961.562 494.776C960.684 494.679 960 495.46 960 496.339V518.116H981.777C982.656 518.116 983.438 517.432 983.34 516.554ZM955.312 522.804V499.659C955.312 498.78 954.434 497.999 953.555 498.097C941.836 499.757 932.949 509.913 933.438 522.12C933.828 534.62 944.57 544.874 957.168 544.679C962.051 544.679 966.641 543.116 970.352 540.382C971.133 539.893 971.133 538.722 970.449 538.038L955.312 522.804Z" fill="#ADB5BD"/>
<path d="M1075.31 513.429C1073.55 513.429 1072.19 514.893 1072.19 516.554V524.366C1072.19 525.245 1071.41 525.929 1070.62 525.929C1069.75 525.929 1069.06 525.245 1069.06 524.366V516.944C1069.06 515.186 1069.45 513.526 1070.33 512.061L1077.95 499.464C1078.83 497.999 1078.34 496.046 1076.88 495.167C1075.51 494.288 1073.65 494.776 1072.77 496.046C1072.68 496.046 1072.68 496.046 1072.68 496.143L1061.25 513.331C1060.18 514.796 1059.69 516.651 1059.69 518.507V526.319L1050.8 529.249C1049.63 529.64 1048.65 530.811 1048.65 532.179H1048.75V541.554C1048.75 542.628 1049.53 544.679 1051.88 544.679C1052.07 544.679 1052.36 544.679 1052.66 544.581L1070.14 540.089C1075.02 538.624 1078.44 534.132 1078.44 529.054V516.554C1078.44 514.893 1076.97 513.429 1075.31 513.429ZM1109.1 529.249L1100.31 526.319V518.507C1100.31 516.651 1099.73 514.796 1098.65 513.331L1087.23 496.143C1087.23 496.046 1087.23 496.143 1087.13 496.046C1086.25 494.776 1084.39 494.288 1083.03 495.167C1081.56 496.046 1081.07 497.999 1081.95 499.464L1089.57 512.159C1090.45 513.526 1090.94 515.284 1090.94 516.944V524.366C1090.94 525.245 1090.16 525.929 1089.38 525.929C1088.5 525.929 1087.81 525.245 1087.81 524.366V516.554C1087.81 514.893 1086.35 513.429 1084.69 513.429C1082.93 513.429 1081.56 514.893 1081.56 516.554V529.054C1081.56 534.132 1084.88 538.722 1089.77 540.089L1107.25 544.581C1107.54 544.679 1107.83 544.679 1108.12 544.679C1110.37 544.679 1111.25 542.628 1111.25 541.554V532.179C1111.25 530.909 1110.37 529.64 1109.1 529.249Z" fill="#F06595"/>
</svg>
